<?xml version="1.0" standalone="no"?>
<svg xmlns="http://www.w3.org/2000/svg" width="400" height="400"><defs><clipPath id="clip-path-dot-color"><path d="M 15 125v 10h 5a 5 5, 0, 0, 0, 0 -10" transform="rotate(180,20,130)"/><path d="M 15 165v 10h 10a 10 10, 0, 0, 0, -10 -10" transform="rotate(-90,20,170)"/><path d="M 15 175v 10h 5a 5 5, 0, 0, 0, 0 -10" transform="rotate(90,20,180)"/><path d="M 15 195v 10h 5a 5 5, 0, 0, 0, 0 -10" transform="rotate(-90,20,200)"/><path d="M 15 205v 10h 10a 10 10, 0, 0, 0, -10 -10" transform="rotate(180,20,210)"/><circle cx="20" cy="260" r="5" transform="rotate(0,20,260)"/><path d="M 15 275v 10h 5a 5 5, 0, 0, 0, 0 -10" transform="rotate(180,20,280)"/><path d="M 15 295v 10h 5a 5 5, 0, 0, 0, 0 -10" transform="rotate(180,20,300)"/><path d="M 25 105v 10h 10a 10 10, 0, 0, 0, -10 -10" transform="rotate(-90,30,110)"/><rect x="25" y="115" width="10" height="10" transform="rotate(0,30,120)"/><rect x="25" y="125" width="10" height="10" transform="rotate(0,30,130)"/><path d="M 25 135v 10h 5a 5 5, 0, 0, 0, 0 -10" transform="rotate(90,30,140)"/><path d="M 25 155v 10h 5a 5 5, 0, 0, 0, 0 -10" transform="rotate(-90,30,160)"/><path d="M 25 165v 10h 10a 10 10, 0, 0, 0, -10 -10" transform="rotate(90,30,170)"/><rect x="25" y="205" width="10" height="10" transform="rotate(0,30,210)"/><rect x="25" y="215" width="10" height="10" transform="rotate(0,30,220)"/><rect x="25" y="225" width="10" height="10" transform="rotate(0,30,230)"/><rect x="25" y="235" width="10" height="10" transform="rotate(0,30,240)"/><path d="M 25 245v 10h 5a 5 5, 0, 0, 0, 0 -10" transform="rotate(90,30,250)"/><path d="M 25 265v 10h 10a 10 10, 0, 0, 0, -10 -10" transform="rotate(-90,30,270)"/><path d="M 25 275v 10h 10a 10 10, 0, 0, 0, -10 -10" transform="rotate(90,30,280)"/><rect x="25" y="295" width="10" height="10" transform="rotate(0,30,300)"/><path d="M 35 105v 10h 5a 5 5, 0, 0, 0, 0 -10" transform="rotate(0,40,110)"/><path d="M 35 125v 10h 5a 5 5, 0, 0, 0, 0 -10" transform="rotate(0,40,130)"/><circle cx="40" cy="190" r="5" transform="rotate(0,40,190)"/><rect x="35" y="205" width="10" height="10" transform="rotate(0,40,210)"/><path d="M 35 225v 10h 10a 10 10, 0, 0, 0, -10 -10" transform="rotate(0,40,230)"/><path d="M 35 235v 10h 10a 10 10, 0, 0, 0, -10 -10" transform="rotate(90,40,240)"/><rect x="35" y="265" width="10" height="10" transform="rotate(0,40,270)"/><path d="M 35 295v 10h 5a 5 5, 0, 0, 0, 0 -10" transform="rotate(0,40,300)"/><circle cx="50" cy="150" r="5" transform="rotate(0,50,150)"/><rect x="45" y="205" width="10" height="10" transform="rotate(0,50,210)"/><path d="M 45 215v 10h 5a 5 5, 0, 0, 0, 0 -10" transform="rotate(90,50,220)"/><path d="M 45 255v 10h 10a 10 10, 0, 0, 0, -10 -10" transform="rotate(-90,50,260)"/><rect x="45" y="265" width="10" height="10" transform="rotate(0,50,270)"/><path d="M 55 95v 10h 5a 5 5, 0, 0, 0, 0 -10" transform="rotate(-90,60,100)"/><rect x="55" y="105" width="10" height="10" transform="rotate(0,60,110)"/><path d="M 55 115v 10h 10a 10 10, 0, 0, 0, -10 -10" transform="rotate(180,60,120)"/><circle cx="60" cy="140" r="5" transform="rotate(0,60,140)"/><path d="M 55 175v 10h 10a 10 10, 0, 0, 0, -10 -10" transform="rotate(-90,60,180)"/><path d="M 55 185v 10h 10a 10 10, 0, 0, 0, -10 -10" transform="rotate(180,60,190)"/><path d="M 55 205v 10h 5a 5 5, 0, 0, 0, 0 -10" transform="rotate(0,60,210)"/><path d="M 55 225v 10h 10a 10 10, 0, 0, 0, -10 -10" transform="rotate(-90,60,230)"/><rect x="55" y="235" width="10" height="10" transform="rotate(0,60,240)"/><rect x="55" y="245" width="10" height="10" transform="rotate(0,60,250)"/><rect x="55" y="255" width="10" height="10" transform="rotate(0,60,260)"/><path d="M 55 265v 10h 10a 10 10, 0, 0, 0, -10 -10" transform="rotate(90,60,270)"/><circle cx="60" cy="290" r="5" transform="rotate(0,60,290)"/><rect x="65" y="115" width="10" height="10" transform="rotate(0,70,120)"/><path d="M 65 165v 10h 5a 5 5, 0, 0, 0, 0 -10" transform="rotate(-90,70,170)"/><rect x="65" y="175" width="10" height="10" transform="rotate(0,70,180)"/><path d="M 65 185v 10h 10a 10 10, 0, 0, 0, -10 -10" transform="rotate(90,70,190)"/><path d="M 65 215v 10h 10a 10 10, 0, 0, 0, -10 -10" transform="rotate(-90,70,220)"/><path d="M 65 225v 10h 10a 10 10, 0, 0, 0, -10 -10" transform="rotate(90,70,230)"/><rect x="65" y="255" width="10" height="10" transform="rotate(0,70,260)"/><path d="M 65 275v 10h 5a 5 5, 0, 0, 0, 0 -10" transform="rotate(180,70,280)"/><path d="M 75 95v 10h 5a 5 5, 0, 0, 0, 0 -10" transform="rotate(180,80,100)"/><rect x="75" y="115" width="10" height="10" transform="rotate(0,80,120)"/><path d="M 75 135v 10h 5a 5 5, 0, 0, 0, 0 -10" transform="rotate(180,80,140)"/><path d="M 75 155v 10h 5a 5 5, 0, 0, 0, 0 -10" transform="rotate(180,80,160)"/><rect x="75" y="175" width="10" height="10" transform="rotate(0,80,180)"/><path d="M 75 195v 10h 5a 5 5, 0, 0, 0, 0 -10" transform="rotate(180,80,200)"/><path d="M 75 215v 10h 5a 5 5, 0, 0, 0, 0 -10" transform="rotate(0,80,220)"/><circle cx="80" cy="240" r="5" transform="rotate(0,80,240)"/><rect x="75" y="255" width="10" height="10" transform="rotate(0,80,260)"/><rect x="75" y="275" width="10" height="10" transform="rotate(0,80,280)"/><path d="M 75 295v 10h 5a 5 5, 0, 0, 0, 0 -10" transform="rotate(180,80,300)"/><rect x="85" y="95" width="10" height="10" transform="rotate(0,90,100)"/><path d="M 85 115v 10h 5a 5 5, 0, 0, 0, 0 -10" transform="rotate(0,90,120)"/><path d="M 85 135v 10h 5a 5 5, 0, 0, 0, 0 -10" transform="rotate(0,90,140)"/><path d="M 85 155v 10h 5a 5 5, 0, 0, 0, 0 -10" transform="rotate(0,90,160)"/><path d="M 85 175v 10h 10a 10 10, 0, 0, 0, -10 -10" transform="rotate(0,90,180)"/><rect x="85" y="185" width="10" height="10" transform="rotate(0,90,190)"/><rect x="85" y="195" width="10" height="10" transform="rotate(0,90,200)"/><path d="M 85 205v 10h 10a 10 10, 0, 0, 0, -10 -10" transform="rotate(180,90,210)"/><rect x="85" y="255" width="10" height="10" transform="rotate(0,90,260)"/><rect x="85" y="265" width="10" height="10" transform="rotate(0,90,270)"/><rect x="85" y="275" width="10" height="10" transform="rotate(0,90,280)"/><rect x="85" y="285" width="10" height="10" transform="rotate(0,90,290)"/><path d="M 85 295v 10h 10a 10 10, 0, 0, 0, -10 -10" transform="rotate(90,90,300)"/><path d="M 95 35v 10h 10a 10 10, 0, 0, 0, -10 -10" transform="rotate(-90,100,40)"/><path d="M 95 45v 10h 10a 10 10, 0, 0, 0, -10 -10" transform="rotate(180,100,50)"/><path d="M 95 75v 10h 5a 5 5, 0, 0, 0, 0 -10" transform="rotate(-90,100,80)"/><rect x="95" y="85" width="10" height="10" transform="rotate(0,100,90)"/><rect x="95" y="95" width="10" height="10" transform="rotate(0,100,100)"/><path d="M 95 105v 10h 10a 10 10, 0, 0, 0, -10 -10" transform="rotate(180,100,110)"/><rect x="95" y="185" width="10" height="10" transform="rotate(0,100,190)"/><rect x="95" y="205" width="10" height="10" transform="rotate(0,100,210)"/><path d="M 95 235v 10h 5a 5 5, 0, 0, 0, 0 -10" transform="rotate(180,100,240)"/><path d="M 95 255v 10h 10a 10 10, 0, 0, 0, -10 -10" transform="rotate(0,100,260)"/><rect x="95" y="265" width="10" height="10" transform="rotate(0,100,270)"/><rect x="95" y="275" width="10" height="10" transform="rotate(0,100,280)"/><rect x="95" y="285" width="10" height="10" transform="rotate(0,100,290)"/><path d="M 95 305v 10h 10a 10 10, 0, 0, 0, -10 -10" transform="rotate(-90,100,310)"/><path d="M 95 315v 10h 5a 5 5, 0, 0, 0, 0 -10" transform="rotate(90,100,320)"/><circle cx="100" cy="340" r="5" transform="rotate(0,100,340)"/><path d="M 105 35v 10h 10a 10 10, 0, 0, 0, -10 -10" transform="rotate(0,110,40)"/><rect x="105" y="45" width="10" height="10" transform="rotate(0,110,50)"/><rect x="105" y="95" width="10" height="10" transform="rotate(0,110,100)"/><rect x="105" y="105" width="10" height="10" transform="rotate(0,110,110)"/><circle cx="110" cy="130" r="5" transform="rotate(0,110,130)"/><path d="M 105 145v 10h 5a 5 5, 0, 0, 0, 0 -10" transform="rotate(180,110,150)"/><path d="M 105 165v 10h 5a 5 5, 0, 0, 0, 0 -10" transform="rotate(180,110,170)"/><path d="M 105 185v 10h 10a 10 10, 0, 0, 0, -10 -10" transform="rotate(0,110,190)"/><rect x="105" y="195" width="10" height="10" transform="rotate(0,110,200)"/><path d="M 105 205v 10h 10a 10 10, 0, 0, 0, -10 -10" transform="rotate(90,110,210)"/><rect x="105" y="235" width="10" height="10" transform="rotate(0,110,240)"/><rect x="105" y="265" width="10" height="10" transform="rotate(0,110,270)"/><path d="M 105 285v 10h 5a 5 5, 0, 0, 0, 0 -10" transform="rotate(0,110,290)"/><rect x="105" y="305" width="10" height="10" transform="rotate(0,110,310)"/><circle cx="110" cy="330" r="5" transform="rotate(0,110,330)"/><path d="M 105 355v 10h 5a 5 5, 0, 0, 0, 0 -10" transform="rotate(180,110,360)"/><circle cx="120" cy="20" r="5" transform="rotate(0,120,20)"/><rect x="115" y="45" width="10" height="10" transform="rotate(0,120,50)"/><rect x="115" y="55" width="10" height="10" transform="rotate(0,120,60)"/><rect x="115" y="65" width="10" height="10" transform="rotate(0,120,70)"/><path d="M 115 75v 10h 5a 5 5, 0, 0, 0, 0 -10" transform="rotate(90,120,80)"/><path d="M 115 95v 10h 10a 10 10, 0, 0, 0, -10 -10" transform="rotate(0,120,100)"/><rect x="115" y="105" width="10" height="10" transform="rotate(0,120,110)"/><path d="M 115 115v 10h 10a 10 10, 0, 0, 0, -10 -10" transform="rotate(180,120,120)"/><path d="M 115 145v 10h 5a 5 5, 0, 0, 0, 0 -10" transform="rotate(0,120,150)"/><path d="M 115 165v 10h 5a 5 5, 0, 0, 0, 0 -10" transform="rotate(0,120,170)"/><path d="M 115 225v 10h 5a 5 5, 0, 0, 0, 0 -10" transform="rotate(-90,120,230)"/><rect x="115" y="235" width="10" height="10" transform="rotate(0,120,240)"/><path d="M 115 245v 10h 5a 5 5, 0, 0, 0, 0 -10" transform="rotate(90,120,250)"/><rect x="115" y="265" width="10" height="10" transform="rotate(0,120,270)"/><path d="M 115 295v 10h 10a 10 10, 0, 0, 0, -10 -10" transform="rotate(-90,120,300)"/><path d="M 115 305v 10h 10a 10 10, 0, 0, 0, -10 -10" transform="rotate(90,120,310)"/><path d="M 115 335v 10h 5a 5 5, 0, 0, 0, 0 -10" transform="rotate(180,120,340)"/><rect x="115" y="355" width="10" height="10" transform="rotate(0,120,360)"/><path d="M 115 365v 10h 5a 5 5, 0, 0, 0, 0 -10" transform="rotate(90,120,370)"/><path d="M 125 45v 10h 10a 10 10, 0, 0, 0, -10 -10" transform="rotate(0,130,50)"/><rect x="125" y="55" width="10" height="10" transform="rotate(0,130,60)"/><rect x="125" y="65" width="10" height="10" transform="rotate(0,130,70)"/><rect x="125" y="115" width="10" height="10" transform="rotate(0,130,120)"/><path d="M 125 135v 10h 5a 5 5, 0, 0, 0, 0 -10" transform="rotate(180,130,140)"/><path d="M 125 175v 10h 5a 5 5, 0, 0, 0, 0 -10" transform="rotate(-90,130,180)"/><rect x="125" y="185" width="10" height="10" transform="rotate(0,130,190)"/><rect x="125" y="195" width="10" height="10" transform="rotate(0,130,200)"/><path d="M 125 205v 10h 5a 5 5, 0, 0, 0, 0 -10" transform="rotate(90,130,210)"/><path d="M 125 255v 10h 5a 5 5, 0, 0, 0, 0 -10" transform="rotate(-90,130,260)"/><rect x="125" y="265" width="10" height="10" transform="rotate(0,130,270)"/><path d="M 125 275v 10h 10a 10 10, 0, 0, 0, -10 -10" transform="rotate(180,130,280)"/><rect x="125" y="295" width="10" height="10" transform="rotate(0,130,300)"/><path d="M 125 325v 10h 5a 5 5, 0, 0, 0, 0 -10" transform="rotate(-90,130,330)"/><rect x="125" y="335" width="10" height="10" transform="rotate(0,130,340)"/><rect x="125" y="345" width="10" height="10" transform="rotate(0,130,350)"/><rect x="125" y="355" width="10" height="10" transform="rotate(0,130,360)"/><path d="M 125 375v 10h 5a 5 5, 0, 0, 0, 0 -10" transform="rotate(180,130,380)"/><path d="M 135 25v 10h 5a 5 5, 0, 0, 0, 0 -10" transform="rotate(-90,140,30)"/><path d="M 135 35v 10h 10a 10 10, 0, 0, 0, -10 -10" transform="rotate(180,140,40)"/><rect x="135" y="55" width="10" height="10" transform="rotate(0,140,60)"/><rect x="135" y="65" width="10" height="10" transform="rotate(0,140,70)"/><path d="M 135 75v 10h 5a 5 5, 0, 0, 0, 0 -10" transform="rotate(90,140,80)"/><rect x="135" y="115" width="10" height="10" transform="rotate(0,140,120)"/><path d="M 135 135v 10h 5a 5 5, 0, 0, 0, 0 -10" transform="rotate(0,140,140)"/><rect x="135" y="185" width="10" height="10" transform="rotate(0,140,190)"/><circle cx="140" cy="240" r="5" transform="rotate(0,140,240)"/><path d="M 135 265v 10h 10a 10 10, 0, 0, 0, -10 -10" transform="rotate(0,140,270)"/><rect x="135" y="275" width="10" height="10" transform="rotate(0,140,280)"/><rect x="135" y="285" width="10" height="10" transform="rotate(0,140,290)"/><rect x="135" y="295" width="10" height="10" transform="rotate(0,140,300)"/><rect x="135" y="305" width="10" height="10" transform="rotate(0,140,310)"/><path d="M 135 315v 10h 10a 10 10, 0, 0, 0, -10 -10" transform="rotate(180,140,320)"/><rect x="135" y="335" width="10" height="10" transform="rotate(0,140,340)"/><rect x="135" y="345" width="10" height="10" transform="rotate(0,140,350)"/><rect x="135" y="355" width="10" height="10" transform="rotate(0,140,360)"/><rect x="135" y="375" width="10" height="10" transform="rotate(0,140,380)"/><path d="M 145 15v 10h 5a 5 5, 0, 0, 0, 0 -10" transform="rotate(180,150,20)"/><rect x="145" y="35" width="10" height="10" transform="rotate(0,150,40)"/><path d="M 145 55v 10h 10a 10 10, 0, 0, 0, -10 -10" transform="rotate(0,150,60)"/><path d="M 145 65v 10h 10a 10 10, 0, 0, 0, -10 -10" transform="rotate(90,150,70)"/><path d="M 145 85v 10h 10a 10 10, 0, 0, 0, -10 -10" transform="rotate(-90,150,90)"/><rect x="145" y="95" width="10" height="10" transform="rotate(0,150,100)"/><rect x="145" y="105" width="10" height="10" transform="rotate(0,150,110)"/><rect x="145" y="115" width="10" height="10" transform="rotate(0,150,120)"/><path d="M 145 125v 10h 5a 5 5, 0, 0, 0, 0 -10" transform="rotate(90,150,130)"/><path d="M 145 185v 10h 10a 10 10, 0, 0, 0, -10 -10" transform="rotate(0,150,190)"/><rect x="145" y="195" width="10" height="10" transform="rotate(0,150,200)"/><rect x="145" y="205" width="10" height="10" transform="rotate(0,150,210)"/><rect x="145" y="215" width="10" height="10" transform="rotate(0,150,220)"/><path d="M 145 225v 10h 5a 5 5, 0, 0, 0, 0 -10" transform="rotate(90,150,230)"/><path d="M 145 255v 10h 5a 5 5, 0, 0, 0, 0 -10" transform="rotate(180,150,260)"/><rect x="145" y="275" width="10" height="10" transform="rotate(0,150,280)"/><path d="M 145 285v 10h 10a 10 10, 0, 0, 0, -10 -10" transform="rotate(90,150,290)"/><path d="M 145 315v 10h 5a 5 5, 0, 0, 0, 0 -10" transform="rotate(0,150,320)"/><rect x="145" y="335" width="10" height="10" transform="rotate(0,150,340)"/><rect x="145" y="355" width="10" height="10" transform="rotate(0,150,360)"/><path d="M 145 375v 10h 5a 5 5, 0, 0, 0, 0 -10" transform="rotate(0,150,380)"/><path d="M 155 15v 10h 5a 5 5, 0, 0, 0, 0 -10" transform="rotate(0,160,20)"/><path d="M 155 35v 10h 10a 10 10, 0, 0, 0, -10 -10" transform="rotate(0,160,40)"/><path d="M 155 45v 10h 5a 5 5, 0, 0, 0, 0 -10" transform="rotate(90,160,50)"/><path d="M 155 75v 10h 5a 5 5, 0, 0, 0, 0 -10" transform="rotate(-90,160,80)"/><rect x="155" y="85" width="10" height="10" transform="rotate(0,160,90)"/><rect x="155" y="95" width="10" height="10" transform="rotate(0,160,100)"/><rect x="155" y="105" width="10" height="10" transform="rotate(0,160,110)"/><path d="M 155 115v 10h 10a 10 10, 0, 0, 0, -10 -10" transform="rotate(90,160,120)"/><path d="M 155 165v 10h 5a 5 5, 0, 0, 0, 0 -10" transform="rotate(180,160,170)"/><rect x="155" y="195" width="10" height="10" transform="rotate(0,160,200)"/><rect x="155" y="215" width="10" height="10" transform="rotate(0,160,220)"/><path d="M 155 235v 10h 10a 10 10, 0, 0, 0, -10 -10" transform="rotate(-90,160,240)"/><rect x="155" y="245" width="10" height="10" transform="rotate(0,160,250)"/><rect x="155" y="255" width="10" height="10" transform="rotate(0,160,260)"/><rect x="155" y="265" width="10" height="10" transform="rotate(0,160,270)"/><path d="M 155 275v 10h 10a 10 10, 0, 0, 0, -10 -10" transform="rotate(90,160,280)"/><path d="M 155 295v 10h 5a 5 5, 0, 0, 0, 0 -10" transform="rotate(-90,160,300)"/><path d="M 155 305v 10h 10a 10 10, 0, 0, 0, -10 -10" transform="rotate(180,160,310)"/><rect x="155" y="335" width="10" height="10" transform="rotate(0,160,340)"/><path d="M 155 355v 10h 10a 10 10, 0, 0, 0, -10 -10" transform="rotate(0,160,360)"/><path d="M 155 365v 10h 5a 5 5, 0, 0, 0, 0 -10" transform="rotate(90,160,370)"/><path d="M 165 55v 10h 5a 5 5, 0, 0, 0, 0 -10" transform="rotate(-90,170,60)"/><path d="M 165 65v 10h 5a 5 5, 0, 0, 0, 0 -10" transform="rotate(90,170,70)"/><circle cx="170" cy="130" r="5" transform="rotate(0,170,130)"/><path d="M 165 145v 10h 5a 5 5, 0, 0, 0, 0 -10" transform="rotate(180,170,150)"/><path d="M 165 165v 10h 10a 10 10, 0, 0, 0, -10 -10" transform="rotate(0,170,170)"/><rect x="165" y="175" width="10" height="10" transform="rotate(0,170,180)"/><rect x="165" y="185" width="10" height="10" transform="rotate(0,170,190)"/><rect x="165" y="195" width="10" height="10" transform="rotate(0,170,200)"/><rect x="165" y="205" width="10" height="10" transform="rotate(0,170,210)"/><path d="M 165 215v 10h 10a 10 10, 0, 0, 0, -10 -10" transform="rotate(90,170,220)"/><path d="M 165 235v 10h 10a 10 10, 0, 0, 0, -10 -10" transform="rotate(0,170,240)"/><rect x="165" y="245" width="10" height="10" transform="rotate(0,170,250)"/><path d="M 165 255v 10h 10a 10 10, 0, 0, 0, -10 -10" transform="rotate(90,170,260)"/><circle cx="170" cy="290" r="5" transform="rotate(0,170,290)"/><rect x="165" y="305" width="10" height="10" transform="rotate(0,170,310)"/><path d="M 165 325v 10h 5a 5 5, 0, 0, 0, 0 -10" transform="rotate(-90,170,330)"/><path d="M 165 335v 10h 10a 10 10, 0, 0, 0, -10 -10" transform="rotate(90,170,340)"/><circle cx="180" cy="30" r="5" transform="rotate(0,180,30)"/><circle cx="180" cy="80" r="5" transform="rotate(0,180,80)"/><circle cx="180" cy="120" r="5" transform="rotate(0,180,120)"/><path d="M 175 145v 10h 10a 10 10, 0, 0, 0, -10 -10" transform="rotate(0,180,150)"/><path d="M 175 155v 10h 10a 10 10, 0, 0, 0, -10 -10" transform="rotate(180,180,160)"/><path d="M 175 175v 10h 5a 5 5, 0, 0, 0, 0 -10" transform="rotate(0,180,180)"/><rect x="175" y="195" width="10" height="10" transform="rotate(0,180,200)"/><path d="M 175 265v 10h 5a 5 5, 0, 0, 0, 0 -10" transform="rotate(180,180,270)"/><path d="M 175 305v 10h 5a 5 5, 0, 0, 0, 0 -10" transform="rotate(0,180,310)"/><path d="M 175 345v 10h 10a 10 10, 0, 0, 0, -10 -10" transform="rotate(-90,180,350)"/><path d="M 175 355v 10h 10a 10 10, 0, 0, 0, -10 -10" transform="rotate(180,180,360)"/><path d="M 175 375v 10h 5a 5 5, 0, 0, 0, 0 -10" transform="rotate(180,180,380)"/><path d="M 185 35v 10h 5a 5 5, 0, 0, 0, 0 -10" transform="rotate(180,190,40)"/><path d="M 185 95v 10h 10a 10 10, 0, 0, 0, -10 -10" transform="rotate(-90,190,100)"/><path d="M 185 105v 10h 10a 10 10, 0, 0, 0, -10 -10" transform="rotate(180,190,110)"/><circle cx="190" cy="140" r="5" transform="rotate(0,190,140)"/><rect x="185" y="155" width="10" height="10" transform="rotate(0,190,160)"/><path d="M 185 185v 10h 5a 5 5, 0, 0, 0, 0 -10" transform="rotate(-90,190,190)"/><path d="M 185 195v 10h 10a 10 10, 0, 0, 0, -10 -10" transform="rotate(90,190,200)"/><path d="M 185 235v 10h 5a 5 5, 0, 0, 0, 0 -10" transform="rotate(-90,190,240)"/><path d="M 185 245v 10h 5a 5 5, 0, 0, 0, 0 -10" transform="rotate(90,190,250)"/><path d="M 185 265v 10h 5a 5 5, 0, 0, 0, 0 -10" transform="rotate(0,190,270)"/><path d="M 185 285v 10h 5a 5 5, 0, 0, 0, 0 -10" transform="rotate(180,190,290)"/><circle cx="190" cy="320" r="5" transform="rotate(0,190,320)"/><path d="M 185 345v 10h 10a 10 10, 0, 0, 0, -10 -10" transform="rotate(0,190,350)"/><path d="M 185 355v 10h 10a 10 10, 0, 0, 0, -10 -10" transform="rotate(90,190,360)"/><rect x="185" y="375" width="10" height="10" transform="rotate(0,190,380)"/><path d="M 195 25v 10h 5a 5 5, 0, 0, 0, 0 -10" transform="rotate(-90,200,30)"/><rect x="195" y="35" width="10" height="10" transform="rotate(0,200,40)"/><rect x="195" y="45" width="10" height="10" transform="rotate(0,200,50)"/><path d="M 195 55v 10h 5a 5 5, 0, 0, 0, 0 -10" transform="rotate(90,200,60)"/><circle cx="200" cy="80" r="5" transform="rotate(0,200,80)"/><rect x="195" y="95" width="10" height="10" transform="rotate(0,200,100)"/><path d="M 195 105v 10h 10a 10 10, 0, 0, 0, -10 -10" transform="rotate(90,200,110)"/><circle cx="200" cy="130" r="5" transform="rotate(0,200,130)"/><path d="M 195 155v 10h 5a 5 5, 0, 0, 0, 0 -10" transform="rotate(0,200,160)"/><path d="M 195 175v 10h 5a 5 5, 0, 0, 0, 0 -10" transform="rotate(180,200,180)"/><circle cx="200" cy="230" r="5" transform="rotate(0,200,230)"/><circle cx="200" cy="260" r="5" transform="rotate(0,200,260)"/><path d="M 195 275v 10h 5a 5 5, 0, 0, 0, 0 -10" transform="rotate(-90,200,280)"/><rect x="195" y="285" width="10" height="10" transform="rotate(0,200,290)"/><rect x="195" y="295" width="10" height="10" transform="rotate(0,200,300)"/><path d="M 195 305v 10h 5a 5 5, 0, 0, 0, 0 -10" transform="rotate(90,200,310)"/><circle cx="200" cy="340" r="5" transform="rotate(0,200,340)"/><path d="M 195 365v 10h 10a 10 10, 0, 0, 0, -10 -10" transform="rotate(-90,200,370)"/><rect x="195" y="375" width="10" height="10" transform="rotate(0,200,380)"/><rect x="205" y="35" width="10" height="10" transform="rotate(0,210,40)"/><path d="M 205 65v 10h 5a 5 5, 0, 0, 0, 0 -10" transform="rotate(180,210,70)"/><path d="M 205 95v 10h 5a 5 5, 0, 0, 0, 0 -10" transform="rotate(0,210,100)"/><path d="M 205 145v 10h 5a 5 5, 0, 0, 0, 0 -10" transform="rotate(180,210,150)"/><path d="M 205 165v 10h 10a 10 10, 0, 0, 0, -10 -10" transform="rotate(-90,210,170)"/><rect x="205" y="175" width="10" height="10" transform="rotate(0,210,180)"/><rect x="205" y="185" width="10" height="10" transform="rotate(0,210,190)"/><path d="M 205 195v 10h 10a 10 10, 0, 0, 0, -10 -10" transform="rotate(180,210,200)"/><path d="M 205 285v 10h 10a 10 10, 0, 0, 0, -10 -10" transform="rotate(0,210,290)"/><rect x="205" y="295" width="10" height="10" transform="rotate(0,210,300)"/><path d="M 205 315v 10h 5a 5 5, 0, 0, 0, 0 -10" transform="rotate(-90,210,320)"/><path d="M 205 325v 10h 5a 5 5, 0, 0, 0, 0 -10" transform="rotate(90,210,330)"/><circle cx="210" cy="350" r="5" transform="rotate(0,210,350)"/><rect x="205" y="365" width="10" height="10" transform="rotate(0,210,370)"/><path d="M 205 375v 10h 10a 10 10, 0, 0, 0, -10 -10" transform="rotate(90,210,380)"/><path d="M 215 15v 10h 5a 5 5, 0, 0, 0, 0 -10" transform="rotate(-90,220,20)"/><rect x="215" y="25" width="10" height="10" transform="rotate(0,220,30)"/><rect x="215" y="35" width="10" height="10" transform="rotate(0,220,40)"/><path d="M 215 55v 10h 10a 10 10, 0, 0, 0, -10 -10" transform="rotate(-90,220,60)"/><rect x="215" y="65" width="10" height="10" transform="rotate(0,220,70)"/><path d="M 215 75v 10h 5a 5 5, 0, 0, 0, 0 -10" transform="rotate(90,220,80)"/><path d="M 215 105v 10h 5a 5 5, 0, 0, 0, 0 -10" transform="rotate(-90,220,110)"/><rect x="215" y="115" width="10" height="10" transform="rotate(0,220,120)"/><rect x="215" y="125" width="10" height="10" transform="rotate(0,220,130)"/><rect x="215" y="135" width="10" height="10" transform="rotate(0,220,140)"/><rect x="215" y="145" width="10" height="10" transform="rotate(0,220,150)"/><rect x="215" y="155" width="10" height="10" transform="rotate(0,220,160)"/><rect x="215" y="165" width="10" height="10" transform="rotate(0,220,170)"/><rect x="215" y="175" width="10" height="10" transform="rotate(0,220,180)"/><rect x="215" y="185" width="10" height="10" transform="rotate(0,220,190)"/><rect x="215" y="195" width="10" height="10" transform="rotate(0,220,200)"/><path d="M 215 205v 10h 10a 10 10, 0, 0, 0, -10 -10" transform="rotate(180,220,210)"/><circle cx="220" cy="240" r="5" transform="rotate(0,220,240)"/><path d="M 215 255v 10h 5a 5 5, 0, 0, 0, 0 -10" transform="rotate(180,220,260)"/><circle cx="220" cy="280" r="5" transform="rotate(0,220,280)"/><path d="M 215 295v 10h 5a 5 5, 0, 0, 0, 0 -10" transform="rotate(0,220,300)"/><circle cx="220" cy="340" r="5" transform="rotate(0,220,340)"/><path d="M 215 365v 10h 5a 5 5, 0, 0, 0, 0 -10" transform="rotate(0,220,370)"/><rect x="225" y="35" width="10" height="10" transform="rotate(0,230,40)"/><rect x="225" y="45" width="10" height="10" transform="rotate(0,230,50)"/><rect x="225" y="55" width="10" height="10" transform="rotate(0,230,60)"/><rect x="225" y="65" width="10" height="10" transform="rotate(0,230,70)"/><circle cx="230" cy="90" r="5" transform="rotate(0,230,90)"/><path d="M 225 125v 10h 5a 5 5, 0, 0, 0, 0 -10" transform="rotate(0,230,130)"/><rect x="225" y="155" width="10" height="10" transform="rotate(0,230,160)"/><rect x="225" y="165" width="10" height="10" transform="rotate(0,230,170)"/><path d="M 225 185v 10h 5a 5 5, 0, 0, 0, 0 -10" transform="rotate(0,230,190)"/><rect x="225" y="205" width="10" height="10" transform="rotate(0,230,210)"/><rect x="225" y="255" width="10" height="10" transform="rotate(0,230,260)"/><circle cx="230" cy="310" r="5" transform="rotate(0,230,310)"/><circle cx="230" cy="330" r="5" transform="rotate(0,230,330)"/><path d="M 225 355v 10h 5a 5 5, 0, 0, 0, 0 -10" transform="rotate(180,230,360)"/><circle cx="240" cy="20" r="5" transform="rotate(0,240,20)"/><rect x="235" y="35" width="10" height="10" transform="rotate(0,240,40)"/><rect x="235" y="65" width="10" height="10" transform="rotate(0,240,70)"/><path d="M 235 75v 10h 5a 5 5, 0, 0, 0, 0 -10" transform="rotate(90,240,80)"/><path d="M 235 115v 10h 5a 5 5, 0, 0, 0, 0 -10" transform="rotate(180,240,120)"/><rect x="235" y="155" width="10" height="10" transform="rotate(0,240,160)"/><rect x="235" y="165" width="10" height="10" transform="rotate(0,240,170)"/><path d="M 235 175v 10h 10a 10 10, 0, 0, 0, -10 -10" transform="rotate(180,240,180)"/><path d="M 235 205v 10h 5a 5 5, 0, 0, 0, 0 -10" transform="rotate(0,240,210)"/><path d="M 235 225v 10h 5a 5 5, 0, 0, 0, 0 -10" transform="rotate(-90,240,230)"/><rect x="235" y="235" width="10" height="10" transform="rotate(0,240,240)"/><rect x="235" y="245" width="10" height="10" transform="rotate(0,240,250)"/><path d="M 235 255v 10h 10a 10 10, 0, 0, 0, -10 -10" transform="rotate(90,240,260)"/><path d="M 235 275v 10h 5a 5 5, 0, 0, 0, 0 -10" transform="rotate(180,240,280)"/><circle cx="240" cy="340" r="5" transform="rotate(0,240,340)"/><rect x="235" y="355" width="10" height="10" transform="rotate(0,240,360)"/><path d="M 245 25v 10h 10a 10 10, 0, 0, 0, -10 -10" transform="rotate(-90,250,30)"/><rect x="245" y="35" width="10" height="10" transform="rotate(0,250,40)"/><path d="M 245 45v 10h 5a 5 5, 0, 0, 0, 0 -10" transform="rotate(90,250,50)"/><rect x="245" y="65" width="10" height="10" transform="rotate(0,250,70)"/><path d="M 245 85v 10h 5a 5 5, 0, 0, 0, 0 -10" transform="rotate(-90,250,90)"/><rect x="245" y="95" width="10" height="10" transform="rotate(0,250,100)"/><rect x="245" y="105" width="10" height="10" transform="rotate(0,250,110)"/><rect x="245" y="115" width="10" height="10" transform="rotate(0,250,120)"/><path d="M 245 135v 10h 5a 5 5, 0, 0, 0, 0 -10" transform="rotate(-90,250,140)"/><rect x="245" y="145" width="10" height="10" transform="rotate(0,250,150)"/><rect x="245" y="155" width="10" height="10" transform="rotate(0,250,160)"/><rect x="245" y="165" width="10" height="10" transform="rotate(0,250,170)"/><path d="M 245 175v 10h 10a 10 10, 0, 0, 0, -10 -10" transform="rotate(90,250,180)"/><path d="M 245 195v 10h 5a 5 5, 0, 0, 0, 0 -10" transform="rotate(180,250,200)"/><path d="M 245 215v 10h 5a 5 5, 0, 0, 0, 0 -10" transform="rotate(180,250,220)"/><path d="M 245 265v 10h 5a 5 5, 0, 0, 0, 0 -10" transform="rotate(-90,250,270)"/><rect x="245" y="275" width="10" height="10" transform="rotate(0,250,280)"/><rect x="245" y="285" width="10" height="10" transform="rotate(0,250,290)"/><path d="M 245 295v 10h 5a 5 5, 0, 0, 0, 0 -10" transform="rotate(90,250,300)"/><path d="M 245 345v 10h 10a 10 10, 0, 0, 0, -10 -10" transform="rotate(-90,250,350)"/><rect x="245" y="355" width="10" height="10" transform="rotate(0,250,360)"/><rect x="245" y="365" width="10" height="10" transform="rotate(0,250,370)"/><path d="M 245 375v 10h 10a 10 10, 0, 0, 0, -10 -10" transform="rotate(180,250,380)"/><rect x="255" y="25" width="10" height="10" transform="rotate(0,260,30)"/><path d="M 255 65v 10h 10a 10 10, 0, 0, 0, -10 -10" transform="rotate(0,260,70)"/><path d="M 255 75v 10h 5a 5 5, 0, 0, 0, 0 -10" transform="rotate(90,260,80)"/><rect x="255" y="105" width="10" height="10" transform="rotate(0,260,110)"/><rect x="255" y="115" width="10" height="10" transform="rotate(0,260,120)"/><path d="M 255 125v 10h 10a 10 10, 0, 0, 0, -10 -10" transform="rotate(180,260,130)"/><rect x="255" y="195" width="10" height="10" transform="rotate(0,260,200)"/><path d="M 255 215v 10h 10a 10 10, 0, 0, 0, -10 -10" transform="rotate(0,260,220)"/><path d="M 255 225v 10h 10a 10 10, 0, 0, 0, -10 -10" transform="rotate(180,260,230)"/><circle cx="260" cy="320" r="5" transform="rotate(0,260,320)"/><path d="M 255 335v 10h 10a 10 10, 0, 0, 0, -10 -10" transform="rotate(-90,260,340)"/><rect x="255" y="345" width="10" height="10" transform="rotate(0,260,350)"/><rect x="255" y="355" width="10" height="10" transform="rotate(0,260,360)"/><rect x="255" y="365" width="10" height="10" transform="rotate(0,260,370)"/><rect x="255" y="375" width="10" height="10" transform="rotate(0,260,380)"/><rect x="265" y="25" width="10" height="10" transform="rotate(0,270,30)"/><path d="M 265 35v 10h 10a 10 10, 0, 0, 0, -10 -10" transform="rotate(180,270,40)"/><path d="M 265 105v 10h 5a 5 5, 0, 0, 0, 0 -10" transform="rotate(0,270,110)"/><path d="M 265 125v 10h 5a 5 5, 0, 0, 0, 0 -10" transform="rotate(0,270,130)"/><path d="M 265 145v 10h 10a 10 10, 0, 0, 0, -10 -10" transform="rotate(-90,270,150)"/><rect x="265" y="155" width="10" height="10" transform="rotate(0,270,160)"/><path d="M 265 165v 10h 5a 5 5, 0, 0, 0, 0 -10" transform="rotate(90,270,170)"/><path d="M 265 185v 10h 10a 10 10, 0, 0, 0, -10 -10" transform="rotate(-90,270,190)"/><path d="M 265 195v 10h 10a 10 10, 0, 0, 0, -10 -10" transform="rotate(90,270,200)"/><path d="M 265 225v 10h 5a 5 5, 0, 0, 0, 0 -10" transform="rotate(0,270,230)"/><circle cx="270" cy="250" r="5" transform="rotate(0,270,250)"/><circle cx="270" cy="270" r="5" transform="rotate(0,270,270)"/><path d="M 265 295v 10h 10a 10 10, 0, 0, 0, -10 -10" transform="rotate(-90,270,300)"/><path d="M 265 305v 10h 5a 5 5, 0, 0, 0, 0 -10" transform="rotate(90,270,310)"/><path d="M 265 325v 10h 5a 5 5, 0, 0, 0, 0 -10" transform="rotate(-90,270,330)"/><rect x="265" y="335" width="10" height="10" transform="rotate(0,270,340)"/><rect x="265" y="355" width="10" height="10" transform="rotate(0,270,360)"/><rect x="265" y="365" width="10" height="10" transform="rotate(0,270,370)"/><path d="M 265 375v 10h 10a 10 10, 0, 0, 0, -10 -10" transform="rotate(90,270,380)"/><path d="M 275 25v 10h 10a 10 10, 0, 0, 0, -10 -10" transform="rotate(0,280,30)"/><rect x="275" y="35" width="10" height="10" transform="rotate(0,280,40)"/><path d="M 275 65v 10h 10a 10 10, 0, 0, 0, -10 -10" transform="rotate(-90,280,70)"/><path d="M 275 75v 10h 5a 5 5, 0, 0, 0, 0 -10" transform="rotate(90,280,80)"/><path d="M 275 145v 10h 5a 5 5, 0, 0, 0, 0 -10" transform="rotate(0,280,150)"/><path d="M 275 185v 10h 5a 5 5, 0, 0, 0, 0 -10" transform="rotate(0,280,190)"/><path d="M 275 205v 10h 5a 5 5, 0, 0, 0, 0 -10" transform="rotate(180,280,210)"/><path d="M 275 255v 10h 5a 5 5, 0, 0, 0, 0 -10" transform="rotate(180,280,260)"/><path d="M 275 275v 10h 5a 5 5, 0, 0, 0, 0 -10" transform="rotate(-90,280,280)"/><rect x="275" y="285" width="10" height="10" transform="rotate(0,280,290)"/><rect x="275" y="295" width="10" height="10" transform="rotate(0,280,300)"/><path d="M 275 335v 10h 10a 10 10, 0, 0, 0, -10 -10" transform="rotate(0,280,340)"/><rect x="275" y="345" width="10" height="10" transform="rotate(0,280,350)"/><rect x="275" y="355" width="10" height="10" transform="rotate(0,280,360)"/><rect x="275" y="365" width="10" height="10" transform="rotate(0,280,370)"/><circle cx="290" cy="20" r="5" transform="rotate(0,290,20)"/><path d="M 285 35v 10h 10a 10 10, 0, 0, 0, -10 -10" transform="rotate(0,290,40)"/><rect x="285" y="45" width="10" height="10" transform="rotate(0,290,50)"/><rect x="285" y="55" width="10" height="10" transform="rotate(0,290,60)"/><path d="M 285 65v 10h 10a 10 10, 0, 0, 0, -10 -10" transform="rotate(90,290,70)"/><path d="M 285 105v 10h 5a 5 5, 0, 0, 0, 0 -10" transform="rotate(180,290,110)"/><path d="M 285 125v 10h 5a 5 5, 0, 0, 0, 0 -10" transform="rotate(-90,290,130)"/><path d="M 285 135v 10h 10a 10 10, 0, 0, 0, -10 -10" transform="rotate(180,290,140)"/><path d="M 285 165v 10h 5a 5 5, 0, 0, 0, 0 -10" transform="rotate(180,290,170)"/><path d="M 285 205v 10h 10a 10 10, 0, 0, 0, -10 -10" transform="rotate(0,290,210)"/><path d="M 285 215v 10h 10a 10 10, 0, 0, 0, -10 -10" transform="rotate(180,290,220)"/><path d="M 285 235v 10h 5a 5 5, 0, 0, 0, 0 -10" transform="rotate(180,290,240)"/><path d="M 285 255v 10h 5a 5 5, 0, 0, 0, 0 -10" transform="rotate(0,290,260)"/><rect x="285" y="295" width="10" height="10" transform="rotate(0,290,300)"/><path d="M 285 305v 10h 10a 10 10, 0, 0, 0, -10 -10" transform="rotate(180,290,310)"/><path d="M 285 325v 10h 5a 5 5, 0, 0, 0, 0 -10" transform="rotate(180,290,330)"/><path d="M 285 365v 10h 10a 10 10, 0, 0, 0, -10 -10" transform="rotate(0,290,370)"/><path d="M 285 375v 10h 5a 5 5, 0, 0, 0, 0 -10" transform="rotate(90,290,380)"/><path d="M 295 75v 10h 5a 5 5, 0, 0, 0, 0 -10" transform="rotate(-90,300,80)"/><path d="M 295 85v 10h 5a 5 5, 0, 0, 0, 0 -10" transform="rotate(90,300,90)"/><rect x="295" y="105" width="10" height="10" transform="rotate(0,300,110)"/><path d="M 295 115v 10h 10a 10 10, 0, 0, 0, -10 -10" transform="rotate(180,300,120)"/><path d="M 295 135v 10h 5a 5 5, 0, 0, 0, 0 -10" transform="rotate(0,300,140)"/><path d="M 295 155v 10h 10a 10 10, 0, 0, 0, -10 -10" transform="rotate(-90,300,160)"/><rect x="295" y="165" width="10" height="10" transform="rotate(0,300,170)"/><circle cx="300" cy="200" r="5" transform="rotate(0,300,200)"/><path d="M 295 215v 10h 10a 10 10, 0, 0, 0, -10 -10" transform="rotate(0,300,220)"/><rect x="295" y="225" width="10" height="10" transform="rotate(0,300,230)"/><rect x="295" y="235" width="10" height="10" transform="rotate(0,300,240)"/><path d="M 295 245v 10h 10a 10 10, 0, 0, 0, -10 -10" transform="rotate(180,300,250)"/><circle cx="300" cy="270" r="5" transform="rotate(0,300,270)"/><path d="M 295 285v 10h 10a 10 10, 0, 0, 0, -10 -10" transform="rotate(-90,300,290)"/><rect x="295" y="295" width="10" height="10" transform="rotate(0,300,300)"/><rect x="295" y="305" width="10" height="10" transform="rotate(0,300,310)"/><rect x="295" y="315" width="10" height="10" transform="rotate(0,300,320)"/><rect x="295" y="325" width="10" height="10" transform="rotate(0,300,330)"/><path d="M 295 335v 10h 10a 10 10, 0, 0, 0, -10 -10" transform="rotate(180,300,340)"/><path d="M 295 355v 10h 5a 5 5, 0, 0, 0, 0 -10" transform="rotate(180,300,360)"/><path d="M 305 95v 10h 10a 10 10, 0, 0, 0, -10 -10" transform="rotate(-90,310,100)"/><rect x="305" y="105" width="10" height="10" transform="rotate(0,310,110)"/><rect x="305" y="115" width="10" height="10" transform="rotate(0,310,120)"/><rect x="305" y="155" width="10" height="10" transform="rotate(0,310,160)"/><path d="M 305 165v 10h 10a 10 10, 0, 0, 0, -10 -10" transform="rotate(90,310,170)"/><circle cx="310" cy="210" r="5" transform="rotate(0,310,210)"/><path d="M 305 225v 10h 5a 5 5, 0, 0, 0, 0 -10" transform="rotate(0,310,230)"/><path d="M 305 245v 10h 10a 10 10, 0, 0, 0, -10 -10" transform="rotate(0,310,250)"/><path d="M 305 255v 10h 10a 10 10, 0, 0, 0, -10 -10" transform="rotate(180,310,260)"/><path d="M 305 275v 10h 5a 5 5, 0, 0, 0, 0 -10" transform="rotate(-90,310,280)"/><rect x="305" y="285" width="10" height="10" transform="rotate(0,310,290)"/><rect x="305" y="295" width="10" height="10" transform="rotate(0,310,300)"/><rect x="305" y="335" width="10" height="10" transform="rotate(0,310,340)"/><rect x="305" y="345" width="10" height="10" transform="rotate(0,310,350)"/><path d="M 305 355v 10h 10a 10 10, 0, 0, 0, -10 -10" transform="rotate(90,310,360)"/><path d="M 305 375v 10h 5a 5 5, 0, 0, 0, 0 -10" transform="rotate(180,310,380)"/><path d="M 315 95v 10h 5a 5 5, 0, 0, 0, 0 -10" transform="rotate(0,320,100)"/><rect x="315" y="115" width="10" height="10" transform="rotate(0,320,120)"/><path d="M 315 135v 10h 5a 5 5, 0, 0, 0, 0 -10" transform="rotate(180,320,140)"/><path d="M 315 155v 10h 5a 5 5, 0, 0, 0, 0 -10" transform="rotate(0,320,160)"/><circle cx="320" cy="200" r="5" transform="rotate(0,320,200)"/><rect x="315" y="255" width="10" height="10" transform="rotate(0,320,260)"/><rect x="315" y="295" width="10" height="10" transform="rotate(0,320,300)"/><circle cx="320" cy="320" r="5" transform="rotate(0,320,320)"/><rect x="315" y="335" width="10" height="10" transform="rotate(0,320,340)"/><rect x="315" y="345" width="10" height="10" transform="rotate(0,320,350)"/><path d="M 315 365v 10h 10a 10 10, 0, 0, 0, -10 -10" transform="rotate(-90,320,370)"/><path d="M 315 375v 10h 10a 10 10, 0, 0, 0, -10 -10" transform="rotate(90,320,380)"/><path d="M 325 105v 10h 5a 5 5, 0, 0, 0, 0 -10" transform="rotate(-90,330,110)"/><rect x="325" y="115" width="10" height="10" transform="rotate(0,330,120)"/><rect x="325" y="125" width="10" height="10" transform="rotate(0,330,130)"/><rect x="325" y="135" width="10" height="10" transform="rotate(0,330,140)"/><path d="M 325 165v 10h 10a 10 10, 0, 0, 0, -10 -10" transform="rotate(-90,330,170)"/><rect x="325" y="175" width="10" height="10" transform="rotate(0,330,180)"/><path d="M 325 185v 10h 10a 10 10, 0, 0, 0, -10 -10" transform="rotate(180,330,190)"/><circle cx="330" cy="210" r="5" transform="rotate(0,330,210)"/><circle cx="330" cy="240" r="5" transform="rotate(0,330,240)"/><path d="M 325 255v 10h 5a 5 5, 0, 0, 0, 0 -10" transform="rotate(0,330,260)"/><path d="M 325 275v 10h 5a 5 5, 0, 0, 0, 0 -10" transform="rotate(180,330,280)"/><rect x="325" y="295" width="10" height="10" transform="rotate(0,330,300)"/><rect x="325" y="335" width="10" height="10" transform="rotate(0,330,340)"/><rect x="325" y="345" width="10" height="10" transform="rotate(0,330,350)"/><rect x="325" y="365" width="10" height="10" transform="rotate(0,330,370)"/><rect x="335" y="115" width="10" height="10" transform="rotate(0,340,120)"/><rect x="335" y="135" width="10" height="10" transform="rotate(0,340,140)"/><rect x="335" y="165" width="10" height="10" transform="rotate(0,340,170)"/><path d="M 335 185v 10h 10a 10 10, 0, 0, 0, -10 -10" transform="rotate(0,340,190)"/><path d="M 335 195v 10h 10a 10 10, 0, 0, 0, -10 -10" transform="rotate(180,340,200)"/><path d="M 335 215v 10h 10a 10 10, 0, 0, 0, -10 -10" transform="rotate(-90,340,220)"/><path d="M 335 225v 10h 10a 10 10, 0, 0, 0, -10 -10" transform="rotate(180,340,230)"/><circle cx="340" cy="250" r="5" transform="rotate(0,340,250)"/><rect x="335" y="275" width="10" height="10" transform="rotate(0,340,280)"/><rect x="335" y="295" width="10" height="10" transform="rotate(0,340,300)"/><rect x="335" y="305" width="10" height="10" transform="rotate(0,340,310)"/><rect x="335" y="315" width="10" height="10" transform="rotate(0,340,320)"/><rect x="335" y="325" width="10" height="10" transform="rotate(0,340,330)"/><rect x="335" y="335" width="10" height="10" transform="rotate(0,340,340)"/><path d="M 335 345v 10h 10a 10 10, 0, 0, 0, -10 -10" transform="rotate(90,340,350)"/><path d="M 335 365v 10h 5a 5 5, 0, 0, 0, 0 -10" transform="rotate(0,340,370)"/><path d="M 345 95v 10h 5a 5 5, 0, 0, 0, 0 -10" transform="rotate(180,350,100)"/><path d="M 345 115v 10h 5a 5 5, 0, 0, 0, 0 -10" transform="rotate(0,350,120)"/><rect x="345" y="135" width="10" height="10" transform="rotate(0,350,140)"/><rect x="345" y="145" width="10" height="10" transform="rotate(0,350,150)"/><rect x="345" y="155" width="10" height="10" transform="rotate(0,350,160)"/><rect x="345" y="165" width="10" height="10" transform="rotate(0,350,170)"/><path d="M 345 175v 10h 5a 5 5, 0, 0, 0, 0 -10" transform="rotate(90,350,180)"/><rect x="345" y="195" width="10" height="10" transform="rotate(0,350,200)"/><rect x="345" y="205" width="10" height="10" transform="rotate(0,350,210)"/><rect x="345" y="215" width="10" height="10" transform="rotate(0,350,220)"/><rect x="345" y="225" width="10" height="10" transform="rotate(0,350,230)"/><path d="M 345 275v 10h 10a 10 10, 0, 0, 0, -10 -10" transform="rotate(0,350,280)"/><rect x="345" y="285" width="10" height="10" transform="rotate(0,350,290)"/><path d="M 345 295v 10h 10a 10 10, 0, 0, 0, -10 -10" transform="rotate(90,350,300)"/><rect x="345" y="315" width="10" height="10" transform="rotate(0,350,320)"/><rect x="345" y="335" width="10" height="10" transform="rotate(0,350,340)"/><path d="M 355 95v 10h 10a 10 10, 0, 0, 0, -10 -10" transform="rotate(0,360,100)"/><path d="M 355 105v 10h 10a 10 10, 0, 0, 0, -10 -10" transform="rotate(180,360,110)"/><path d="M 355 135v 10h 5a 5 5, 0, 0, 0, 0 -10" transform="rotate(0,360,140)"/><path d="M 355 155v 10h 5a 5 5, 0, 0, 0, 0 -10" transform="rotate(0,360,160)"/><rect x="355" y="195" width="10" height="10" transform="rotate(0,360,200)"/><rect x="355" y="205" width="10" height="10" transform="rotate(0,360,210)"/><rect x="355" y="215" width="10" height="10" transform="rotate(0,360,220)"/><rect x="355" y="225" width="10" height="10" transform="rotate(0,360,230)"/><path d="M 355 235v 10h 5a 5 5, 0, 0, 0, 0 -10" transform="rotate(90,360,240)"/><rect x="355" y="315" width="10" height="10" transform="rotate(0,360,320)"/><rect x="355" y="325" width="10" height="10" transform="rotate(0,360,330)"/><rect x="355" y="335" width="10" height="10" transform="rotate(0,360,340)"/><path d="M 355 345v 10h 10a 10 10, 0, 0, 0, -10 -10" transform="rotate(180,360,350)"/><circle cx="360" cy="370" r="5" transform="rotate(0,360,370)"/><path d="M 365 105v 10h 10a 10 10, 0, 0, 0, -10 -10" transform="rotate(0,370,110)"/><rect x="365" y="115" width="10" height="10" transform="rotate(0,370,120)"/><path d="M 365 125v 10h 10a 10 10, 0, 0, 0, -10 -10" transform="rotate(180,370,130)"/><circle cx="370" cy="150" r="5" transform="rotate(0,370,150)"/><path d="M 365 165v 10h 10a 10 10, 0, 0, 0, -10 -10" transform="rotate(-90,370,170)"/><path d="M 365 175v 10h 10a 10 10, 0, 0, 0, -10 -10" transform="rotate(180,370,180)"/><rect x="365" y="195" width="10" height="10" transform="rotate(0,370,200)"/><path d="M 365 245v 10h 10a 10 10, 0, 0, 0, -10 -10" transform="rotate(-90,370,250)"/><rect x="365" y="255" width="10" height="10" transform="rotate(0,370,260)"/><rect x="365" y="265" width="10" height="10" transform="rotate(0,370,270)"/><path d="M 365 275v 10h 10a 10 10, 0, 0, 0, -10 -10" transform="rotate(180,370,280)"/><path d="M 365 305v 10h 5a 5 5, 0, 0, 0, 0 -10" transform="rotate(-90,370,310)"/><path d="M 365 315v 10h 10a 10 10, 0, 0, 0, -10 -10" transform="rotate(90,370,320)"/><rect x="365" y="345" width="10" height="10" transform="rotate(0,370,350)"/><path d="M 365 355v 10h 10a 10 10, 0, 0, 0, -10 -10" transform="rotate(180,370,360)"/><path d="M 375 115v 10h 10a 10 10, 0, 0, 0, -10 -10" transform="rotate(0,380,120)"/><path d="M 375 125v 10h 10a 10 10, 0, 0, 0, -10 -10" transform="rotate(90,380,130)"/><path d="M 375 165v 10h 10a 10 10, 0, 0, 0, -10 -10" transform="rotate(0,380,170)"/><rect x="375" y="175" width="10" height="10" transform="rotate(0,380,180)"/><rect x="375" y="185" width="10" height="10" transform="rotate(0,380,190)"/><path d="M 375 195v 10h 10a 10 10, 0, 0, 0, -10 -10" transform="rotate(90,380,200)"/><circle cx="380" cy="220" r="5" transform="rotate(0,380,220)"/><path d="M 375 245v 10h 10a 10 10, 0, 0, 0, -10 -10" transform="rotate(0,380,250)"/><rect x="375" y="255" width="10" height="10" transform="rotate(0,380,260)"/><rect x="375" y="265" width="10" height="10" transform="rotate(0,380,270)"/><path d="M 375 275v 10h 10a 10 10, 0, 0, 0, -10 -10" transform="rotate(90,380,280)"/><path d="M 375 335v 10h 5a 5 5, 0, 0, 0, 0 -10" transform="rotate(-90,380,340)"/><rect x="375" y="345" width="10" height="10" transform="rotate(0,380,350)"/><rect x="375" y="355" width="10" height="10" transform="rotate(0,380,360)"/><rect x="375" y="365" width="10" height="10" transform="rotate(0,380,370)"/><path d="M 375 375v 10h 5a 5 5, 0, 0, 0, 0 -10" transform="rotate(90,380,380)"/></clipPath><clipPath id="clip-path-corners-square-color-0-0"><path clip-rule="evenodd" d="M 50 15a 35 35 0 1 0 0.1 0zm 0 10a 25 25 0 1 1 -0.1 0Z" transform="rotate(0,50,50)"/></clipPath><clipPath id="clip-path-corners-dot-color-0-0"><circle cx="50" cy="50" r="15" transform="rotate(0,50,50)"/></clipPath><clipPath id="clip-path-corners-square-color-1-0"><path clip-rule="evenodd" d="M 350 15a 35 35 0 1 0 0.1 0zm 0 10a 25 25 0 1 1 -0.1 0Z" transform="rotate(90,350,50)"/></clipPath><clipPath id="clip-path-corners-dot-color-1-0"><circle cx="350" cy="50" r="15" transform="rotate(90,350,50)"/></clipPath><clipPath id="clip-path-corners-square-color-0-1"><path clip-rule="evenodd" d="M 50 315a 35 35 0 1 0 0.1 0zm 0 10a 25 25 0 1 1 -0.1 0Z" transform="rotate(-90,50,350)"/></clipPath><clipPath id="clip-path-corners-dot-color-0-1"><circle cx="50" cy="350" r="15" transform="rotate(-90,50,350)"/></clipPath></defs><rect x="0" y="0" height="400" width="400" clip-path="url('#clip-path-background-color')" fill="rgba(0,0,0,0)"/><rect x="15" y="15" height="370" width="370" clip-path="url('#clip-path-dot-color')" fill="#000000"/><rect x="15" y="15" height="70" width="70" clip-path="url('#clip-path-corners-square-color-0-0')" fill="#000000"/><rect x="35" y="35" height="30" width="30" clip-path="url('#clip-path-corners-dot-color-0-0')" fill="#000000"/><rect x="315" y="15" height="70" width="70" clip-path="url('#clip-path-corners-square-color-1-0')" fill="#000000"/><rect x="335" y="35" height="30" width="30" clip-path="url('#clip-path-corners-dot-color-1-0')" fill="#000000"/><rect x="15" y="315" height="70" width="70" clip-path="url('#clip-path-corners-square-color-0-1')" fill="#000000"/><rect x="35" y="335" height="30" width="30" clip-path="url('#clip-path-corners-dot-color-0-1')" fill="#000000"/></svg>